<svg width="1024" height="1024" viewBox="0 0 1024 1024" fill="none" xmlns="http://www.w3.org/2000/svg" role="img" aria-labelledby="title desc">
  <title id="title">Premove App Icon</title>
  <desc id="desc">Rounded Midnight Board app icon with the Premove Ghost Move mark.</desc>
  <defs>
    <radialGradient id="bg1" cx="50%" cy="30%" r="70%">
      <stop offset="0" stop-color="#151B26"/>
      <stop offset="0.55" stop-color="#0D111A"/>
      <stop offset="1" stop-color="#07080D"/>
    </radialGradient>
    <radialGradient id="glow" cx="62%" cy="24%" r="45%">
      <stop stop-color="#2DD4BF" stop-opacity="0.22"/>
      <stop offset="1" stop-color="#2DD4BF" stop-opacity="0"/>
    </radialGradient>
    <linearGradient id="move" x1="300" y1="735" x2="705" y2="260" gradientUnits="userSpaceOnUse">
      <stop stop-color="#F2C879"/>
      <stop offset="0.42" stop-color="#2DD4BF"/>
      <stop offset="1" stop-color="#34D399"/>
    </linearGradient>
    <linearGradient id="ivory" x1="210" y1="150" x2="820" y2="790" gradientUnits="userSpaceOnUse">
      <stop stop-color="#FFF8E7"/>
      <stop offset="1" stop-color="#D9C7A7"/>
    </linearGradient>
    <filter id="softGlow" x="-40%" y="-40%" width="180%" height="180%">
      <feGaussianBlur stdDeviation="22" result="blur"/>
      <feBlend in="SourceGraphic" in2="blur"/>
    </filter>
  </defs>
  <rect x="64" y="64" width="896" height="896" rx="190" fill="url(#bg1)"/>
  <rect x="64" y="64" width="896" height="896" rx="190" fill="url(#glow)"/>
  <rect x="72" y="72" width="880" height="880" rx="184" stroke="white" stroke-opacity="0.08" stroke-width="16"/>
  <g transform="translate(95 75) scale(1.62)">
    <rect x="105" y="214" width="64" height="64" fill="#151B26" stroke="rgba(245,242,232,0.16)"/>
    <rect x="169" y="214" width="64" height="64" fill="#0D111A" stroke="rgba(245,242,232,0.12)"/>
    <rect x="105" y="278" width="64" height="64" fill="#0D111A" stroke="rgba(245,242,232,0.12)"/>
    <rect x="169" y="278" width="64" height="64" fill="#151B26" stroke="rgba(245,242,232,0.16)"/>
    <rect x="233" y="214" width="64" height="64" fill="#111827" opacity="0.7" stroke="rgba(245,242,232,0.10)"/>
    <rect x="233" y="278" width="64" height="64" fill="#0D111A" opacity="0.7" stroke="rgba(245,242,232,0.10)"/>
    <path d="M105 178V86H286C362 86 415 137 415 208C415 279 362 330 286 330H235" stroke="url(#ivory)" stroke-width="34" stroke-linecap="square" stroke-linejoin="round"/>
    <path d="M105 178H286C326 178 352 195 352 225C352 255 326 272 286 272H238" stroke="#07080D" stroke-width="34" stroke-linecap="square" stroke-linejoin="round" opacity="0.98"/>
    <path d="M137 371C179 329 219 292 252 252C287 211 318 167 363 128" stroke="url(#move)" stroke-width="16" stroke-linecap="round" opacity="0.92" filter="url(#softGlow)"/>
    <rect x="116" y="351" width="42" height="42" fill="#07080D" stroke="#F2C879" stroke-width="5"/>
    <rect x="345" y="111" width="48" height="48" fill="#34D399" fill-opacity="0.75" stroke="#BDFBEA" stroke-width="3"/>
  </g>
</svg>
